<svg xmlns="http://www.w3.org/2000/svg" xmlns:xlink="http://www.w3.org/1999/xlink" width="550" height="117" viewBox="-31 0 550 117">
  <defs>
    <style>
      .cls-1 {
        fill-rule: evenodd;
      }
    </style>
    <clipPath id="clip-path">
      <rect width="488" height="117"/>
    </clipPath>
  </defs>
  <g clip-path="url(#clip-path)">
    <path id="SOLEADA_copy" data-name="SOLEADA copy" class="cls-1" d="M48.308,35.544c-0.838-6.6-1.571-12.045-1.99-15.92-2.3-.314-7.751-1.885-14.978-1.885-15.711,0-24.3,8.693-24.3,19.691,0,10.893,7.122,16.13,18.015,22,8.8,4.713,12.569,8.274,12.569,14.349,0,6.7-3.875,10.683-10.264,10.683-10.264,0-16.13-11.417-18.225-18.015l-4.085.943C5.784,72.308,7.565,83.2,8.193,85.61c4.923,1.466,10.893,3.247,17.6,3.247,14.978,0,25.242-9.007,25.242-21.367,0-10.369-7.122-15.816-18.329-21.367C23.485,41.515,19.61,38.058,19.61,32.3c0-5.865,3.98-10.16,10.055-10.16,9.636,0,12.569,7.646,14.663,14.349Zm11.2,17.806c0,20.215,15.187,35.506,36.135,35.506,19.8,0,35.716-14.035,35.716-36.344,0-20.634-15.816-34.773-35.193-34.773C72.29,17.739,59.512,35.44,59.512,53.35Zm55.407,2.095c0,19.167-7.751,28.8-17.7,28.8-14.14,0-21.157-15.187-21.157-32.888,0-18.539,7.855-29.013,18.539-29.013C106.749,22.347,114.919,34.707,114.919,55.445ZM192,67.595c-1.886,4.294-4.609,8.8-6.6,10.893-2.514,2.828-4.085,4.085-10.055,4.085-0.419,0-5.237,0-5.446-.1-5.761-.1-5.971-2.723-5.971-8.484V33.345c0-8.8,1.048-9.531,9.218-10.264V19.205H140.47v3.875c7.855,0.628,8.9,1.466,8.9,10.264V73.25c0,8.8-.838,9.531-10.055,10.16v3.875h51.95c0.943-2.828,3.876-13.93,4.714-18.434Zm62.525,0.943a46.79,46.79,0,0,1-6.389,10.474c-2.3,2.828-3.875,3.561-9.741,3.561h-7.436c-6.494-.1-6.7-2.3-6.7-9.531V55.026h10.16c6.075,0,6.913,1.257,8.589,9.008h4.084V40.677h-4.084c-1.571,7.437-2.619,9.008-8.484,9.008H224.257V27.794c0-3.561.419-3.771,4.4-3.771h6.808c5.342,0,6.7.628,8.589,2.723,1.781,1.885,3.561,6.18,4.5,9.741l4.085-.524C252.223,29.47,251.7,20.881,251.594,19c-1.466.1-5.132,0.209-16.13,0.209h-34.04v3.875c7.123,0.628,8.379,1.257,8.379,10.16V73.25c0,8.8-.628,9.322-10.159,10.264v3.771H254c0.943-2.933,3.876-14.978,4.4-17.806Zm79.911,18.748V83.41c-6.808-.838-7.75-1.571-11.626-11.312C316,54.607,308.882,35.963,302.179,17.739l-5.028.943-21.785,54.15c-3.561,8.8-5.237,9.741-11.836,10.579v3.875H289.4V83.41c-8.275-.733-10.788-1.571-8.589-8.17,1.048-3.247,2.514-7.227,3.666-10.474H304.9c1.571,4.19,3.247,8.9,4.294,12.045,1.467,4.5,1.467,5.656-5.132,6.6v3.875h30.374Zm-31.526-27.86H286.259c2.618-7.646,5.551-14.663,8.588-22.2Zm35.293-40.22v3.875c7.751,0.628,8.9,1.466,8.9,10.264v39.8c0,8.693-.943,9.636-8.9,10.264v3.875h28.8c11.94,0,21.891-2.933,29.641-8.8,8.065-6.075,13.093-15.292,13.093-27.337,0-10.579-4.085-17.91-9.427-22.833-6.7-6.284-16.549-9.112-29.955-9.112H338.205Zm23.461,11.731c0-3.037.21-4.818,1.153-5.761,0.628-.628,2.409-1.466,6.284-1.466,7.017,0,12.464,1.466,16.863,5.865,4.818,4.5,7.541,13.2,7.541,23.147,0,19.8-8.17,29.641-22.309,29.641-7.646,0-9.532-2.514-9.532-9.95V30.936ZM482.949,87.285V83.41c-6.808-.838-7.751-1.571-11.626-11.312-6.808-17.491-13.93-36.135-20.633-54.359l-5.028.943-21.786,54.15c-3.561,8.8-5.237,9.741-11.835,10.579v3.875h25.87V83.41c-8.274-.733-10.788-1.571-8.588-8.17,1.047-3.247,2.514-7.227,3.666-10.474h20.424c1.571,4.19,3.247,8.9,4.294,12.045,1.466,4.5,1.466,5.656-5.132,6.6v3.875h30.374Zm-31.526-27.86H434.769c2.619-7.646,5.551-14.663,8.589-22.2Z"/>
    <path id="FUSIONES_INTERNATIONAL_copy" data-name="FUSIONES INTERNATIONAL copy" class="cls-1" d="M23.458,100.534c-0.177-.967-0.355-2.376-0.39-2.655-0.567.016-2.34,0.033-5.39,0.033H5.658v0.606c2.695,0.1,3.014.229,3.014,1.688v6.032c0,1.508-.319,1.606-3.014,1.721v0.606H17v-0.606c-3.191-.1-3.4-0.213-3.4-1.721v-2.557h3.794c1.95,0,2.482.279,2.872,1.393h1.347v-3.638H20.3c-0.532,1.147-.816,1.393-2.907,1.393H13.6V99.256c0-.557.142-0.59,1.347-0.59h2.659a5.608,5.608,0,0,1,2.907.426,4.386,4.386,0,0,1,1.56,1.541Zm27.266-2.622H41.93v0.606c2.482,0.066,3.475.229,3.617,0.983a12.9,12.9,0,0,1,.177,2.212v2.049c0,2.458-1.844,3.9-6.063,3.9-3.794,0-5.744-1.213-5.744-3.049v-4.359c0-1.508.319-1.623,2.978-1.738V97.912H25.939v0.606c2.695,0.115,3.014.229,3.014,1.738V104.4c0,1.836.993,2.836,3.049,3.557a19.4,19.4,0,0,0,6.347.852,16.552,16.552,0,0,0,6.666-1.131,3.943,3.943,0,0,0,2.517-3.819v-2.147a9.732,9.732,0,0,1,.177-2.2c0.142-.59.745-0.9,3.014-1V97.912Zm16.415,2.557c-0.284-1.033-.532-1.885-0.674-2.491-0.78-.049-2.624-0.3-5.07-0.3-5.319,0-8.226,1.36-8.226,3.081,0,1.7,2.411,2.524,6.1,3.441,2.979,0.738,4.255,1.3,4.255,2.246,0,1.049-1.312,1.672-3.475,1.672a7.387,7.387,0,0,1-6.17-2.819l-1.383.147a29.408,29.408,0,0,0,1.064,2.852,42.47,42.47,0,0,0,5.957.508c5.07,0,8.545-1.41,8.545-3.344,0-1.622-2.411-2.474-6.205-3.343-3.12-.721-4.432-1.262-4.432-2.163,0-.918,1.347-1.59,3.4-1.59,3.262,0,4.255,1.2,4.964,2.245Zm14.678,8.1v-0.606c-2.695-.131-3.014-0.23-3.014-1.59v-6.244c0-1.377.355-1.492,3.014-1.607V97.912H70.861v0.606c2.659,0.1,3.014.229,3.014,1.607v6.244c0,1.377-.319,1.475-3.014,1.59v0.606H81.817Zm3.084-5.31c0,3.163,5.141,5.556,12.233,5.556,6.7,0,12.091-2.2,12.091-5.687,0-3.229-5.354-5.441-11.914-5.441C89.227,97.683,84.9,100.452,84.9,103.255Zm18.757,0.328c0,3-2.624,4.507-5.993,4.507-4.787,0-7.162-2.377-7.162-5.146,0-2.9,2.659-4.54,6.276-4.54C100.892,98.4,103.658,100.338,103.658,103.583Zm33.364-5.671h-8.758v0.606c2.943,0.082,3.51.426,3.616,1.131a13.78,13.78,0,0,1,.142,2.573v2.95l-13.509-7.26H111.6v0.606a6.129,6.129,0,0,1,2.978.524,1.308,1.308,0,0,1,.745,1.327v3.885a10.311,10.311,0,0,1-.213,2.606c-0.213.77-1.1,1.016-3.12,1.1v0.606h8.793v-0.606c-2.624-.066-3.368-0.443-3.51-1.164a11.579,11.579,0,0,1-.177-2.54v-3.7l14.785,8.194h1.986v-6.523a12.91,12.91,0,0,1,.213-2.622c0.106-.738.78-0.951,2.943-1.082V97.912Zm20.351,7.719a9.526,9.526,0,0,1-2.163,1.639c-0.78.443-1.312,0.558-3.3,0.558H149.4c-2.2-.017-2.27-0.361-2.27-1.492v-2.819h3.44c2.056,0,2.34.2,2.907,1.41h1.383v-3.655h-1.383c-0.532,1.163-.886,1.409-2.872,1.409h-3.475V99.256c0-.557.142-0.59,1.49-0.59h2.3c1.809,0,2.27.1,2.908,0.426a4.083,4.083,0,0,1,1.524,1.524l1.383-.082c-0.142-1.016-.319-2.36-0.354-2.655-0.5.016-1.738,0.033-5.461,0.033H139.4v0.606c2.411,0.1,2.836.2,2.836,1.59v6.261c0,1.377-.213,1.459-3.439,1.606v0.59h18.4a28.387,28.387,0,0,0,1.489-2.786Zm18.542-5.162c-0.283-1.033-.531-1.885-0.673-2.491-0.78-.049-2.624-0.3-5.071-0.3-5.318,0-8.226,1.36-8.226,3.081,0,1.7,2.411,2.524,6.1,3.441,2.978,0.738,4.255,1.3,4.255,2.246,0,1.049-1.312,1.672-3.475,1.672a7.388,7.388,0,0,1-6.17-2.819l-1.383.147a29.559,29.559,0,0,0,1.064,2.852,42.482,42.482,0,0,0,5.957.508c5.07,0,8.545-1.41,8.545-3.344,0-1.622-2.411-2.474-6.2-3.343-3.12-.721-4.432-1.262-4.432-2.163,0-.918,1.347-1.59,3.4-1.59,3.262,0,4.255,1.2,4.964,2.245Zm23.188,8.1v-0.606c-2.7-.131-3.014-0.23-3.014-1.59v-6.244c0-1.377.355-1.492,3.014-1.607V97.912H188.147v0.606c2.659,0.1,3.013.229,3.013,1.607v6.244c0,1.377-.319,1.475-3.013,1.59v0.606H199.1ZM226.83,97.912h-8.758v0.606c2.943,0.082,3.51.426,3.616,1.131a13.78,13.78,0,0,1,.142,2.573v2.95l-13.509-7.26h-6.914v0.606a6.129,6.129,0,0,1,2.978.524,1.308,1.308,0,0,1,.745,1.327v3.885a10.311,10.311,0,0,1-.213,2.606c-0.213.77-1.1,1.016-3.12,1.1v0.606h8.793v-0.606c-2.624-.066-3.368-0.443-3.51-1.164a11.645,11.645,0,0,1-.177-2.54v-3.7l14.785,8.194h1.986v-6.523a12.91,12.91,0,0,1,.213-2.622c0.106-.738.78-0.951,2.943-1.082V97.912Zm23.684,2.786c-0.178-1.065-.32-2.507-0.355-3.2h-1.028a3.943,3.943,0,0,1-2.057.41H232.891a3,3,0,0,1-2.021-.41h-1.063c-0.071.787-.32,2.065-0.568,3.262h1.348a5.813,5.813,0,0,1,1.453-1.557c0.674-.393,1.241-0.541,3.227-0.541h2.163v7.7c0,1.377-.319,1.475-3.333,1.59v0.606h11.772v-0.606c-3.156-.115-3.511-0.213-3.511-1.59v-7.7h2.27c2.092,0,2.375.131,3.014,0.475a4.854,4.854,0,0,1,1.524,1.606Zm20.634,4.933a9.5,9.5,0,0,1-2.162,1.639c-0.781.443-1.312,0.558-3.3,0.558h-2.517c-2.2-.017-2.27-0.361-2.27-1.492v-2.819h3.44c2.056,0,2.34.2,2.907,1.41h1.383v-3.655h-1.383c-0.532,1.163-.886,1.409-2.872,1.409H260.9V99.256c0-.557.142-0.59,1.489-0.59H264.7c1.809,0,2.269.1,2.908,0.426a4.09,4.09,0,0,1,1.524,1.524l1.383-.082c-0.142-1.016-.319-2.36-0.354-2.655-0.5.016-1.738,0.033-5.461,0.033H253.172v0.606c2.411,0.1,2.836.2,2.836,1.59v6.261c0,1.377-.213,1.459-3.439,1.606v0.59h18.4a28.387,28.387,0,0,0,1.489-2.786Zm25.954,2.475a5.892,5.892,0,0,1-2.234-.721,21.4,21.4,0,0,1-2.695-1.7c-1.063-.754-2.446-1.82-2.978-2.311,2.34-.426,4.432-1.2,4.432-2.655,0-1.017-.957-1.738-2.376-2.18a21.609,21.609,0,0,0-6.417-.623H274.551v0.606c2.659,0.1,3.014.279,3.014,1.574v6.277c0,1.327-.319,1.459-3.014,1.59v0.606H285.4v-0.606c-2.659-.148-3.014-0.263-3.014-1.59v-2.393l0.709,0.016a2.92,2.92,0,0,1,2.163.541,36.906,36.906,0,0,0,3.652,2.885c1.064,0.688,2.376,1.131,6.879,1.229,0.426,0.016.851,0.016,1.064,0.016Zm-14.715-4.8V99.387a0.559,0.559,0,0,1,.319-0.623,4.661,4.661,0,0,1,1.631-.164c1.986,0,4.149.623,4.149,2.36,0,0.836-.5,1.459-1.667,1.918a10.078,10.078,0,0,1-3.475.426h-0.957Zm40.668-5.392H314.3v0.606c2.943,0.082,3.511.426,3.617,1.131a13.871,13.871,0,0,1,.142,2.573v2.95l-13.509-7.26h-6.915v0.606a6.131,6.131,0,0,1,2.979.524,1.308,1.308,0,0,1,.744,1.327v3.885a10.374,10.374,0,0,1-.212,2.606c-0.213.77-1.1,1.016-3.121,1.1v0.606h8.794v-0.606c-2.624-.066-3.369-0.443-3.51-1.164a11.555,11.555,0,0,1-.178-2.54v-3.7l14.786,8.194H319.9v-6.523a13.007,13.007,0,0,1,.212-2.622c0.107-.738.78-0.951,2.943-1.082V97.912Zm24.074,10.653v-0.606c-2.305-.131-2.624-0.246-3.936-1.77-2.3-2.737-4.715-5.655-6.985-8.506l-1.7.147-7.375,8.473c-1.2,1.377-1.773,1.525-4.006,1.656v0.606h8.758v-0.606c-2.8-.115-3.653-0.246-2.908-1.279,0.355-.508.851-1.131,1.241-1.639h6.914c0.532,0.656,1.1,1.393,1.454,1.885,0.5,0.7.5,0.885-1.737,1.033v0.606h10.282Zm-10.672-4.36h-5.638c0.886-1.2,1.879-2.294,2.907-3.474Zm30.066-3.507c-0.177-1.065-.319-2.507-0.354-3.2H365.14a3.939,3.939,0,0,1-2.056.41H348.9a3,3,0,0,1-2.021-.41h-1.064c-0.071.787-.319,2.065-0.567,3.262H346.6a5.8,5.8,0,0,1,1.454-1.557c0.674-.393,1.241-0.541,3.227-0.541h2.162v7.7c0,1.377-.319,1.475-3.333,1.59v0.606h11.772v-0.606c-3.155-.115-3.51-0.213-3.51-1.59v-7.7h2.269c2.092,0,2.376.131,3.014,0.475a4.845,4.845,0,0,1,1.525,1.606Zm13.437,7.867v-0.606c-2.695-.131-3.014-0.23-3.014-1.59v-6.244c0-1.377.355-1.492,3.014-1.607V97.912H369v0.606c2.659,0.1,3.014.229,3.014,1.607v6.244c0,1.377-.319,1.475-3.014,1.59v0.606H379.96Zm3.084-5.31c0,3.163,5.141,5.556,12.233,5.556,6.7,0,12.091-2.2,12.091-5.687,0-3.229-5.354-5.441-11.914-5.441C387.37,97.683,383.044,100.452,383.044,103.255Zm18.757,0.328c0,3-2.624,4.507-5.992,4.507-4.787,0-7.163-2.377-7.163-5.146,0-2.9,2.66-4.54,6.276-4.54C399.035,98.4,401.8,100.338,401.8,103.583Zm33.364-5.671h-8.758v0.606c2.943,0.082,3.51.426,3.616,1.131a13.78,13.78,0,0,1,.142,2.573v2.95l-13.509-7.26h-6.914v0.606a6.129,6.129,0,0,1,2.978.524,1.308,1.308,0,0,1,.745,1.327v3.885a10.311,10.311,0,0,1-.213,2.606c-0.213.77-1.1,1.016-3.12,1.1v0.606h8.793v-0.606c-2.624-.066-3.368-0.443-3.51-1.164a11.645,11.645,0,0,1-.177-2.54v-3.7l14.785,8.194h1.986v-6.523a12.91,12.91,0,0,1,.213-2.622c0.106-.738.78-0.951,2.943-1.082V97.912Zm24.074,10.653v-0.606c-2.3-.131-2.624-0.246-3.936-1.77-2.305-2.737-4.716-5.655-6.985-8.506l-1.7.147-7.375,8.473c-1.206,1.377-1.773,1.525-4.007,1.656v0.606h8.758v-0.606c-2.8-.115-3.652-0.246-2.907-1.279,0.354-.508.851-1.131,1.241-1.639h6.914c0.532,0.656,1.1,1.393,1.453,1.885,0.5,0.7.5,0.885-1.737,1.033v0.606h10.283Zm-10.673-4.36h-5.638c0.887-1.2,1.88-2.294,2.908-3.474Zm29.393,1.279a8.921,8.921,0,0,1-2.234,1.7,5.945,5.945,0,0,1-3.4.64c-0.142,0-1.773,0-1.844-.017-1.95-.016-2.021-0.426-2.021-1.327v-6.359c0-1.377.355-1.492,3.121-1.607V97.912H460.514v0.606c2.659,0.1,3.014.229,3.014,1.607v6.244c0,1.377-.284,1.491-3.4,1.59v0.606h17.587a22.847,22.847,0,0,0,1.595-2.884Z"/>
  </g>
</svg>
